 <svg width="351" height="60" viewBox="0 0 351 60" fill="none" xmlns="http://www.w3.org/2000/svg">
            <path d="M52.36 38.12V33.76H73.32V38.12H52.36ZM66.28 15L80.68 45H75.04L61.96 17H64L50.92 45H45.28L59.68 15H66.28ZM102.537 30.12L103.057 28.96C105.43 28.9867 107.363 29.3467 108.857 30.04C110.377 30.7333 111.483 31.6667 112.177 32.84C112.897 34.0133 113.257 35.3333 113.257 36.8C113.257 38.4 112.87 39.8133 112.097 41.04C111.35 42.2667 110.243 43.24 108.777 43.96C107.31 44.6533 105.483 45 103.297 45H83.2966L85.6566 29.6L83.2966 15H102.577C105.35 15 107.483 15.6533 108.977 16.96C110.497 18.24 111.257 20.0133 111.257 22.28C111.257 23.48 110.963 24.6533 110.377 25.8C109.817 26.92 108.897 27.88 107.617 28.68C106.363 29.4533 104.67 29.9333 102.537 30.12ZM88.6166 43.52L86.5766 40.76H102.697C104.35 40.76 105.63 40.3867 106.537 39.64C107.47 38.8667 107.937 37.7733 107.937 36.36C107.937 34.8667 107.39 33.7067 106.297 32.88C105.23 32.0533 103.643 31.64 101.537 31.64H88.5366V27.56H101.017C102.43 27.56 103.603 27.1733 104.537 26.4C105.47 25.6 105.937 24.4667 105.937 23C105.937 21.9067 105.55 21.0133 104.777 20.32C104.003 19.6 102.883 19.24 101.417 19.24H86.5766L88.6166 16.48L90.7366 29.6L88.6166 43.52ZM133.804 45.56C130.39 45.56 127.39 44.9067 124.804 43.6C122.217 42.2933 120.204 40.48 118.764 38.16C117.324 35.8133 116.604 33.0933 116.604 30C116.604 26.9067 117.324 24.2 118.764 21.88C120.204 19.5333 122.217 17.7067 124.804 16.4C127.39 15.0933 130.39 14.44 133.804 14.44C137.217 14.44 140.217 15.0933 142.804 16.4C145.39 17.7067 147.404 19.5333 148.844 21.88C150.284 24.2 151.004 26.9067 151.004 30C151.004 33.0933 150.284 35.8133 148.844 38.16C147.404 40.48 145.39 42.2933 142.804 43.6C140.217 44.9067 137.217 45.56 133.804 45.56ZM133.804 40.84C136.23 40.84 138.324 40.4 140.084 39.52C141.844 38.64 143.204 37.3867 144.164 35.76C145.15 34.1333 145.644 32.2133 145.644 30C145.644 27.7867 145.15 25.8667 144.164 24.24C143.204 22.6133 141.844 21.36 140.084 20.48C138.324 19.6 136.23 19.16 133.804 19.16C131.404 19.16 129.31 19.6 127.524 20.48C125.764 21.36 124.39 22.6133 123.404 24.24C122.444 25.8667 121.964 27.7867 121.964 30C121.964 32.2133 122.444 34.1333 123.404 35.76C124.39 37.3867 125.764 38.64 127.524 39.52C129.31 40.4 131.404 40.84 133.804 40.84ZM161.013 32.12C161.013 33.9067 161.373 35.4533 162.093 36.76C162.813 38.0667 163.84 39.08 165.173 39.8C166.533 40.4933 168.147 40.84 170.013 40.84C171.907 40.84 173.52 40.4933 174.853 39.8C176.187 39.08 177.213 38.0667 177.933 36.76C178.653 35.4533 179.013 33.9067 179.013 32.12V15H184.293V32.32C184.293 34.96 183.693 37.28 182.493 39.28C181.293 41.2533 179.627 42.8 177.493 43.92C175.36 45.0133 172.867 45.56 170.013 45.56C167.187 45.56 164.693 45.0133 162.533 43.92C160.4 42.8 158.733 41.2533 157.533 39.28C156.333 37.28 155.733 34.96 155.733 32.32V15H161.013V32.12ZM200.306 17.44H205.586V45H200.306V17.44ZM187.906 15H217.986V19.64H187.906V15ZM271.533 15V45H266.493V16.6L268.133 16.68L254.173 45H248.533L234.573 16.72L236.213 16.64V45H231.173V15H239.253L252.693 42.72H250.053L263.453 15H271.533ZM302.203 27.8V32.2H281.243V27.8H302.203ZM284.723 30L282.603 43.4L280.083 40.44H303.363V45H277.203L279.603 30L277.203 15H303.163V19.56H280.083L282.603 16.6L284.723 30Z" fill="#A7A89A"/>
            <path d="M11.5 36C17.8512 36 23 30.8512 23 24.5H0C0 30.8512 5.14876 36 11.5 36Z" fill="#A7A89A"/>
            <path d="M339.5 36C345.851 36 351 30.8512 351 24.5H328C328 30.8512 333.149 36 339.5 36Z" fill="#A7A89A"/>
          </svg>