      <svg width="263" height="140" viewBox="0 0 263 140" fill="none" xmlns="http://www.w3.org/2000/svg">
<path d="M67.0553 42.8467C67.1824 43.4719 67.4434 44.0035 67.838 44.4414C68.9248 45.6687 70.8015 46.0112 73.4683 45.4688C73.4518 44.3427 73.3593 43.365 73.1906 42.5356C73.0738 41.9614 72.8806 41.436 72.6109 40.9594C71.8791 39.713 70.856 39.2235 69.5418 39.4908C68.9038 39.6206 68.3544 39.8918 67.8935 40.3044C67.1323 41.004 66.8529 41.8514 67.0553 42.8467ZM47.212 41.1224C47.4671 41.0705 47.7226 41.085 47.9782 41.1659C48.5482 41.3556 48.9044 41.7349 49.0467 42.3039C49.362 46.598 49.6156 49.968 49.8074 52.4137C50.2661 58.3928 50.5746 61.7715 50.7329 62.5498C51.3894 65.778 52.5484 67.2298 54.2097 66.9052C55.5878 66.6249 56.8844 66.0423 58.0996 65.1573C57.2434 63.3649 56.6362 61.5883 56.2781 59.8275C55.9563 58.2453 55.7665 56.8223 55.7088 55.5584C55.5287 51.2102 56.8804 48.7429 59.7641 48.1564C60.938 47.9176 62.0046 48.0661 62.964 48.6018C64.2406 49.3254 65.0527 50.5421 65.4005 52.2519C65.4913 52.6985 65.5643 53.1553 65.6194 53.6225C65.9406 56.5734 65.4624 59.5142 64.1849 62.4448C63.5792 63.8435 62.9988 64.812 62.4439 65.35C62.6134 65.661 63.0044 65.7542 63.6169 65.6297C66.3831 65.0538 68.6531 63.0175 70.4266 59.521C71.921 56.5463 72.9039 52.9182 73.3751 48.6369C71.0321 49.0071 69.0447 48.7735 67.4127 47.9361C65.5122 46.9541 64.3258 45.3019 63.8535 42.9797C63.5418 41.3821 63.9047 39.8999 64.9422 38.5328C65.8602 37.3629 67.0019 36.639 68.3672 36.3614C70.1407 36.0006 71.7376 36.2738 73.1578 37.1808C74.7649 38.2226 75.7903 39.8344 76.2341 42.0163C76.3353 42.5139 76.4541 43.3268 76.5906 44.4551C76.8583 44.3342 77.1222 44.1942 77.3821 44.035C78.0244 43.6652 78.7911 43.0575 79.6821 42.2119C80.316 41.6046 80.8689 41.253 81.341 41.157C81.5452 41.1154 81.747 41.1276 81.9464 41.1933C82.4883 41.3754 82.8177 41.7535 82.9345 42.3277C83.08 43.1086 82.6028 43.9963 81.5029 44.9907C80.1993 46.1594 78.5425 47.0943 76.5325 47.7954C76.2615 52.4081 75.3247 56.4586 73.7222 59.9469C71.4198 64.9595 68.0548 67.916 63.6273 68.8165C63.5252 68.8373 63.409 68.8543 63.2789 68.8675C62.0613 69.0221 60.9418 68.7116 59.9204 67.9361C58.2904 69.2642 56.4227 70.1423 54.3174 70.5705C53.169 70.8041 52.1356 70.6555 51.2171 70.1248C49.4851 69.1217 48.2713 66.9104 47.5758 63.4909C47.1035 61.1686 46.7998 58.0746 46.6646 54.2089C46.5221 50.4377 46.3629 47.7927 46.1868 46.2738C45.0871 47.3346 44.2127 48.1635 43.5634 48.7606C42.4687 49.7805 41.8065 50.3139 41.5768 50.3606C41.2961 50.4177 41.0062 50.3969 40.7071 50.2983C40.1446 50.0805 39.805 49.6845 39.6882 49.1103C39.592 48.5718 39.8009 48.0311 40.3149 47.488C40.3683 47.424 40.4943 47.2921 40.6929 47.0923C44.4137 43.2395 46.5867 41.2496 47.212 41.1224ZM60.3934 62.618C60.7368 62.2159 61.0708 61.6696 61.3954 60.9791C62.4757 58.6467 62.742 56.1344 62.1945 53.4421C62.1711 53.3273 62.1414 53.2137 62.1053 53.1015C61.8287 52.0682 61.2374 51.6436 60.3315 51.8279C59.6578 51.9782 59.2235 52.7176 59.0287 54.0461C58.8371 55.5866 58.9528 57.3967 59.3758 59.4765C59.5341 60.2548 59.8733 61.302 60.3934 62.618ZM80.5342 59.2391C80.446 58.8053 80.3781 58.3408 80.3305 57.8455C80.1547 55.6091 80.4492 53.5295 81.2142 51.6067C82.1437 49.2518 83.559 47.8811 85.4602 47.4944C85.9706 47.3906 86.4748 47.3545 86.9729 47.386C88.7557 47.5284 89.8392 48.5437 90.2233 50.4321C90.2519 50.5725 90.2753 50.7205 90.2937 50.8762C90.5138 52.612 90.0402 54.2031 88.8728 55.6497C87.7283 57.0784 86.2438 57.9782 84.4192 58.3493C84.0747 58.4194 83.73 58.4563 83.3853 58.46C83.3987 58.6565 83.4405 58.9271 83.5105 59.2716C83.661 60.0117 83.9054 60.5599 84.2437 60.9163C84.6946 61.3694 85.465 61.5316 86.555 61.4029C87.0271 61.3069 87.4824 61.1611 87.921 60.9656C88.6859 60.6107 89.5444 59.9644 90.4964 59.0267C91.1149 58.4093 91.5709 58.0707 91.8644 58.011C92.0303 57.9773 92.2129 57.9933 92.4123 58.059C92.8699 58.2184 93.1454 58.5278 93.2389 58.9871C93.27 59.1403 93.2718 59.3126 93.2444 59.5042C93.0685 60.4037 92.1946 61.3986 90.6226 62.489C89.1678 63.5024 87.8343 64.1324 86.6221 64.3789C86.1628 64.4723 85.7275 64.521 85.3164 64.5249C82.8445 64.5227 81.2504 62.7608 80.5342 59.2391ZM85.1909 50.6783C84.1881 51.6928 83.5768 53.3585 83.3571 55.6753C83.6917 55.687 84.0057 55.663 84.2992 55.6033C85.3582 55.3879 86.2171 54.8744 86.8758 54.0628C87.6109 53.1692 87.8786 52.2311 87.6787 51.2486C87.4789 50.2662 87.0651 49.8321 86.4373 49.9465C85.9933 50.0501 85.5778 50.294 85.1909 50.6783ZM102.3 60.9112C99.1992 61.409 96.5401 59.9966 94.323 56.6739C92.6703 54.1665 91.4417 50.9351 90.6373 46.9796C90.5957 46.7754 90.5553 46.5113 90.5159 46.1871C90.147 43.4585 90.1425 40.8883 90.5023 38.4765C91.0923 34.5829 92.5995 32.3896 95.0238 31.8965C95.1514 31.8705 95.2867 31.8497 95.4296 31.8339C97.6656 31.5253 99.0301 32.5831 99.5232 35.0075C100.06 37.6487 99.5216 40.8144 97.907 44.5045C96.883 46.852 95.7096 48.8247 94.3869 50.4224C95.3138 52.7585 96.1621 54.4794 96.9318 55.5852C98.3583 57.6337 100.028 58.4633 101.942 58.074C102.07 58.0481 102.201 58.008 102.337 57.954C102.742 57.7918 103.267 57.3662 103.911 56.6772C104.537 56.0316 105.054 55.6673 105.462 55.5843C105.641 55.5479 105.825 55.5703 106.014 55.6514C106.436 55.8314 106.691 56.1382 106.779 56.5721C106.889 57.2408 106.555 58.0194 105.779 58.908C104.8 59.971 103.64 60.6387 102.3 60.9112ZM95.6307 34.7826C94.8805 34.9485 94.2832 35.4088 93.8388 36.1636C92.7189 38.1054 92.6208 41.7063 93.5445 46.9663C94.1518 46.0323 94.7305 44.9579 95.2807 43.7431C96.8097 40.4159 97.3718 37.757 96.9669 35.7665C96.9462 35.6645 96.896 35.5484 96.8164 35.4185C96.4981 34.8986 96.1028 34.6866 95.6307 34.7826ZM102.746 54.3827C102.658 53.9489 102.59 53.4843 102.543 52.9891C102.367 50.7527 102.661 48.6731 103.426 46.7503C104.369 44.3928 105.79 43.0207 107.691 42.6341C107.947 42.5822 108.225 42.5455 108.526 42.5241C109.918 42.4404 110.719 42.7889 110.931 43.5696C111.043 44.1847 110.567 44.6204 109.503 44.8766L108.852 45.009C108.61 45.0583 108.38 45.1382 108.163 45.2487C107.06 45.832 106.281 47.0998 105.828 49.0522C105.41 50.8513 105.371 52.5866 105.711 54.2581C105.884 55.113 106.162 55.7276 106.544 56.1017C106.987 56.5165 107.735 56.6634 108.786 56.5426C109.233 56.4517 109.669 56.3099 110.095 56.117C110.875 55.7722 111.746 55.1233 112.709 54.1703C113.34 53.5502 113.802 53.2104 114.096 53.1507C114.274 53.1144 114.465 53.1354 114.667 53.214C115.114 53.3887 115.384 53.7057 115.478 54.1651C115.506 54.3054 115.506 54.465 115.476 54.6439C115.297 55.4642 114.516 56.3937 113.133 57.4324C111.632 58.5481 110.18 59.2487 108.777 59.5341C105.61 60.165 103.6 58.4478 102.746 54.3827ZM118.361 40.9025C118.81 40.8244 119.24 40.7834 119.652 40.7795C121.702 40.801 123.219 42.0869 124.203 44.6373C124.417 44.4476 124.766 44.1043 125.249 43.6073C125.909 42.9285 126.436 42.5488 126.831 42.4684C127.023 42.4294 127.22 42.4492 127.422 42.5277C127.869 42.7025 128.137 43.0068 128.225 43.4406C128.301 43.877 128.117 44.4126 127.675 45.0473C127.042 45.9202 126.157 46.7313 125.021 47.4806C125.413 49.4737 125.455 51.219 125.149 52.7164C124.649 55.1567 123.307 56.5987 121.126 57.0425C120.347 57.2008 119.518 57.1103 118.639 56.771C116.598 55.9502 115.264 53.996 114.636 50.9081C114.257 49.0452 114.225 47.2846 114.538 45.6263C115.03 43.0149 116.305 41.4403 118.361 40.9025ZM122.404 48.531C121.904 48.6195 121.421 48.6644 120.957 48.6659C119.2 48.6512 117.933 47.9786 117.158 46.6482C117.044 47.7875 117.116 48.9887 117.373 50.2519C117.497 50.8644 117.675 51.446 117.907 51.9968C118.62 53.6722 119.576 54.388 120.775 54.144C121.171 54.0636 121.503 53.8697 121.773 53.5624C122.559 52.6584 122.77 50.9813 122.404 48.531ZM121.588 45.9864C121.588 45.9864 121.677 45.9683 121.856 45.9319C121.309 44.2228 120.67 43.4358 119.94 43.571C119.877 43.5839 119.814 43.6033 119.753 43.629C119.493 43.7882 119.395 44.0273 119.46 44.3463C119.517 44.627 119.618 44.8922 119.762 45.142C120.201 45.8633 120.809 46.1447 121.588 45.9864ZM131.055 52.6512C131.097 53.1209 131.048 53.5629 130.906 53.977C130.663 54.6775 130.261 55.0848 129.7 55.199C129.559 55.2275 129.42 55.2293 129.282 55.2042C128.59 55.066 128.133 54.4546 127.913 53.37L127.083 40.9622C127.062 40.7273 127.056 40.5026 127.066 40.2881C127.067 39.1849 127.451 38.5555 128.216 38.3998C128.382 38.3661 128.546 38.3528 128.707 38.3599C129.286 38.4014 129.671 38.8879 129.86 39.8194C129.936 40.1894 130.002 40.6144 130.06 41.0942C130.067 41.0661 130.08 41.0303 130.098 40.9869C130.707 39.0825 131.892 37.9512 133.653 37.5931C134.176 37.4867 134.747 37.5167 135.365 37.6832C136.324 37.9534 136.995 38.4415 137.377 39.1476C138.016 37.5827 139.144 36.6291 140.762 36.2867C141.387 36.1596 142.006 36.2329 142.62 36.5067C143.513 36.9098 144.055 37.5835 144.247 38.5277C144.372 39.1401 144.556 40.0793 144.8 41.3451C145.057 42.7411 145.261 43.8091 145.412 44.5491C145.529 45.1233 145.643 45.6183 145.754 46.0342C146.314 48.0063 147.131 48.8834 148.202 48.6654C148.33 48.6395 148.461 48.5995 148.597 48.5454C148.948 48.3808 149.43 47.9707 150.04 47.315C150.638 46.6618 151.148 46.2925 151.569 46.2068C151.735 46.1731 151.905 46.1917 152.079 46.2626C152.523 46.4246 152.798 46.7608 152.902 47.2712C152.909 47.3095 152.913 47.3618 152.914 47.4282C152.949 48.0588 152.548 48.7981 151.71 49.6461C150.687 50.6913 149.589 51.3333 148.415 51.572C147.458 51.7666 146.594 51.6699 145.825 51.2817C144.236 50.462 143.064 48.1957 142.309 44.4826C142.265 44.2657 142.2 43.9135 142.114 43.4261C141.997 42.7191 141.886 42.1104 141.783 41.6C141.51 40.2603 141.218 39.6088 140.907 39.6455C140.652 39.6974 140.392 39.9562 140.128 40.4218C139.445 41.637 138.876 43.7392 138.421 46.7284L138.761 50.0674C138.856 50.9251 138.878 51.5915 138.829 52.0667C138.737 52.9888 138.315 53.5265 137.562 53.6796C137.358 53.7211 137.158 53.7154 136.961 53.6624C136.36 53.5188 135.978 53.045 135.815 52.2412C135.657 51.4628 135.551 50.0293 135.498 47.9407C135.42 45.0732 135.277 43.1291 135.07 42.1083C135.015 41.8404 134.941 41.6095 134.849 41.4157C134.659 41.0027 134.347 40.8403 133.913 40.9285C133.686 40.988 133.458 41.1738 133.229 41.4861C132.466 42.5713 131.843 44.864 131.359 48.364C131.04 50.6479 130.938 52.077 131.055 52.6512ZM150.431 45.0231C150.343 44.5893 150.275 44.1247 150.228 43.6295C150.052 41.3931 150.346 39.3135 151.111 37.3907C152.041 35.0358 153.456 33.665 155.357 33.2784C155.868 33.1745 156.372 33.1384 156.87 33.17C158.653 33.3123 159.736 34.3277 160.12 36.2161C160.149 36.3565 160.172 36.5045 160.191 36.6602C160.411 38.3959 159.937 39.9871 158.77 41.4337C157.625 42.8623 156.141 43.7622 154.316 44.1333C153.972 44.2034 153.627 44.2402 153.282 44.2439C153.296 44.4405 153.338 44.711 153.408 45.0556C153.558 45.7956 153.803 46.3438 154.141 46.7002C154.592 47.1533 155.362 47.3155 156.452 47.1869C156.924 47.0908 157.38 46.9451 157.818 46.7496C158.583 46.3947 159.442 45.7484 160.394 44.8107C161.012 44.1932 161.468 43.8547 161.762 43.795C161.927 43.7613 162.11 43.7773 162.309 43.843C162.767 44.0024 163.043 44.3118 163.136 44.7711C163.167 44.9242 163.169 45.0966 163.141 45.2882C162.966 46.1876 162.092 47.1826 160.52 48.273C159.065 49.2864 157.731 49.9163 156.519 50.1629C156.06 50.2563 155.625 50.3049 155.214 50.3088C152.742 50.3067 151.148 48.5448 150.431 45.0231ZM155.088 36.4623C154.085 37.4768 153.474 39.1425 153.254 41.4593C153.589 41.471 153.903 41.447 154.196 41.3873C155.255 41.1719 156.114 40.6584 156.773 39.8467C157.508 38.9531 157.776 38.0151 157.576 37.0326C157.376 36.0501 156.962 35.6161 156.334 35.7305C155.89 35.8341 155.475 36.078 155.088 36.4623ZM175.257 24.0091C175.27 24.0065 175.333 23.9936 175.448 23.9702C176.168 23.8504 176.815 23.7321 177.389 23.6153L177.028 17.53C176.999 17.124 176.995 16.7793 177.017 16.4958C177.076 15.607 177.456 15.0912 178.158 14.9484C178.298 14.9199 178.441 14.9041 178.586 14.9011C179.202 14.9221 179.608 15.4174 179.806 16.3871C179.868 16.6934 180.051 18.9016 180.356 23.012L182.365 22.6032C182.71 22.5332 183.024 22.5424 183.308 22.6308C183.809 22.8079 184.113 23.1581 184.219 23.6812C184.266 23.9109 184.252 24.1395 184.179 24.367C183.984 24.9115 183.555 25.2513 182.891 25.3862L180.518 25.8689C181.08 33.7271 181.456 38.1219 181.645 39.0534C181.764 39.6403 181.997 40.1643 182.343 40.6254C182.856 41.3183 183.406 41.6051 183.993 41.4857C184.134 41.4572 184.277 41.4082 184.422 41.3388C184.748 41.1794 185.18 40.786 185.717 40.1586C186.241 39.5338 186.713 39.1786 187.134 39.093C187.313 39.0566 187.493 39.0599 187.674 39.1027C188.18 39.239 188.481 39.5431 188.577 40.0152C188.674 40.6865 188.323 41.4755 187.524 42.382C186.544 43.445 185.41 44.1075 184.121 44.3696C182.856 44.6138 181.714 44.2944 180.698 43.4116C179.655 42.4676 178.963 41.1535 178.62 39.4692C178.545 39.0992 178.189 34.7669 177.552 26.4723L175.829 26.8226C175.752 26.8382 175.676 26.8538 175.599 26.8693C174.703 26.9718 174.17 26.602 173.998 25.7599C173.952 25.5302 173.947 25.3119 173.985 25.1049C174.106 24.5223 174.53 24.1571 175.257 24.0091ZM188.832 26.5697C189.282 26.4916 189.712 26.4506 190.123 26.4467C192.174 26.4681 193.691 27.7541 194.674 30.3045C194.888 30.1148 195.237 29.7715 195.721 29.2745C196.38 28.5957 196.907 28.216 197.303 28.1356C197.494 28.0966 197.691 28.1164 197.893 28.1949C198.34 28.3697 198.608 28.674 198.696 29.1078C198.772 29.5442 198.588 30.0798 198.146 30.7145C197.513 31.5874 196.628 32.3984 195.492 33.1478C195.884 35.1409 195.927 36.8861 195.62 38.3836C195.12 40.8239 193.779 42.2659 191.597 42.7097C190.819 42.868 189.99 42.7775 189.11 42.4382C187.07 41.6174 185.735 39.6631 185.107 36.5753C184.728 34.7124 184.696 32.9518 185.01 31.2935C185.502 28.6821 186.776 27.1075 188.832 26.5697ZM192.875 34.1982C192.375 34.2866 191.893 34.3316 191.428 34.3331C189.671 34.3184 188.405 33.6458 187.629 32.3154C187.515 33.4546 187.587 34.6559 187.844 35.9191C187.969 36.5315 188.147 37.1132 188.378 37.664C189.091 39.3394 190.047 40.0551 191.247 39.8112C191.642 39.7308 191.975 39.5369 192.244 39.2296C193.031 38.3256 193.241 36.6485 192.875 34.1982ZM192.059 31.6536C192.059 31.6536 192.148 31.6354 192.327 31.5991C191.78 29.89 191.142 29.103 190.412 29.2382C190.348 29.2511 190.285 29.2705 190.224 29.2962C189.964 29.4554 189.867 29.6945 189.931 30.0135C189.989 30.2942 190.089 30.5594 190.233 30.8092C190.672 31.5304 191.281 31.8119 192.059 31.6536ZM18.3929 121.486C18.4353 121.956 18.3856 122.398 18.244 122.812C18.0011 123.513 17.5989 123.92 17.0375 124.034C16.8972 124.063 16.758 124.064 16.62 124.039C15.9276 123.901 15.471 123.29 15.2504 122.205L14.421 109.797C14.3998 109.562 14.394 109.338 14.4035 109.123C14.405 108.02 14.7886 107.391 15.5541 107.235C15.72 107.201 15.8834 107.188 16.0443 107.195C16.6241 107.237 17.0087 107.723 17.1982 108.654C17.2734 109.025 17.3399 109.449 17.3977 109.929C17.4052 109.901 17.4179 109.865 17.4356 109.822C18.0448 107.918 19.2299 106.786 20.9907 106.428C21.5138 106.322 22.0847 106.352 22.7032 106.518C23.6617 106.788 24.3323 107.277 24.7151 107.983C25.3535 106.418 26.4817 105.464 28.0995 105.122C28.7247 104.995 29.3442 105.068 29.958 105.342C30.8505 105.745 31.3928 106.419 31.5848 107.363C31.7094 107.975 31.8938 108.914 32.1379 110.18C32.3953 111.576 32.5992 112.644 32.7497 113.384C32.8665 113.958 32.9805 114.453 33.0916 114.869C33.6522 116.841 34.4683 117.719 35.5402 117.501C35.6677 117.475 35.7991 117.435 35.9343 117.381C36.2862 117.216 36.7675 116.806 37.3782 116.15C37.9762 115.497 38.4857 115.128 38.9068 115.042C39.0726 115.008 39.2425 115.027 39.4164 115.098C39.8612 115.26 40.1356 115.596 40.2394 116.106C40.2472 116.145 40.2512 116.197 40.2514 116.263C40.2866 116.894 39.8856 117.633 39.0482 118.481C38.025 119.526 36.9265 120.168 35.7526 120.407C34.7957 120.602 33.9322 120.505 33.1623 120.117C31.5739 119.297 30.402 117.031 29.6469 113.318C29.6027 113.101 29.5378 112.749 29.4519 112.261C29.3347 111.554 29.2242 110.946 29.1204 110.435C28.8479 109.095 28.5559 108.444 28.2445 108.481C27.9893 108.533 27.7297 108.791 27.4656 109.257C26.7827 110.472 26.2137 112.574 25.7586 115.564L26.0989 118.903C26.1936 119.76 26.2162 120.427 26.1667 120.902C26.0752 121.824 25.6531 122.362 24.9003 122.515C24.6961 122.556 24.4956 122.55 24.2988 122.497C23.6983 122.354 23.3162 121.88 23.1527 121.076C22.9944 120.298 22.8889 118.864 22.8361 116.776C22.7579 113.908 22.6149 111.964 22.4073 110.943C22.3528 110.676 22.2793 110.445 22.1867 110.251C21.9964 109.838 21.6844 109.675 21.2505 109.764C21.0234 109.823 20.7955 110.009 20.5667 110.321C19.8041 111.406 19.1809 113.699 18.6968 117.199C18.3774 119.483 18.2761 120.912 18.3929 121.486ZM37.6339 102.904C38.4531 102.75 38.9754 103.162 39.2007 104.14C39.2396 104.331 39.2729 104.756 39.3006 105.415C39.4455 108.348 39.6477 110.453 39.9072 111.729C40.4677 114.485 41.4524 115.733 42.8611 115.473C43.1622 115.386 43.4349 115.224 43.6793 114.988C44.7102 113.981 45.1051 111.35 44.864 107.094C44.7991 105.991 44.6649 104.776 44.4614 103.448C44.4483 103.318 44.4391 103.24 44.4339 103.215C44.4285 103.123 44.4244 103.037 44.4215 102.958C44.4008 102.072 44.7923 101.547 45.5962 101.384C45.7493 101.353 45.9076 101.347 46.0711 101.367C46.6868 101.454 47.0855 101.945 47.2671 102.838C47.2879 102.94 47.3101 103.082 47.3336 103.263C47.357 103.378 47.3726 103.454 47.3804 103.493L48.3162 117.991C50.9215 115.056 52.4505 113.297 52.9032 112.713C53.3177 112.204 53.7675 111.9 54.2523 111.801C54.4182 111.768 54.6008 111.784 54.8002 111.849C55.2196 112.016 55.4708 112.304 55.5538 112.713C55.663 113.315 55.4328 113.98 54.8632 114.707C53.7976 116.066 51.7078 118.531 48.5938 122.101L49.0133 128.573C49.1026 130.122 48.6458 131.404 47.643 132.419C46.9354 133.121 46.1541 133.559 45.2992 133.733C44.1253 133.971 42.9959 133.743 41.9109 133.047C40.8514 132.345 40.2101 131.446 39.9869 130.349C39.7508 129.187 39.8458 128.185 40.2721 127.341C40.4903 126.911 40.9785 126.274 41.7367 125.428C41.8256 125.278 43.1219 123.811 45.6256 121.03C45.5579 119.848 45.5031 118.696 45.4612 117.576C44.7912 118.071 43.9713 118.417 43.0016 118.614C42.5422 118.707 42.0967 118.738 41.6651 118.706C39.2946 118.484 37.6786 116.255 36.817 112.019C36.4016 109.911 36.2083 107.818 36.2373 105.739C36.2806 104.122 36.7461 103.177 37.6339 102.904ZM45.9879 127.613C45.9879 127.613 45.9368 126.807 45.8345 125.193C44.7227 126.456 44.1248 127.142 44.0409 127.252C43.2676 128.153 42.9342 128.899 43.0408 129.488C43.0849 129.705 43.166 129.908 43.2841 130.097C43.6152 130.614 44.0806 130.812 44.6803 130.69C44.91 130.643 45.1063 130.563 45.2694 130.45C45.8581 130.078 46.0976 129.132 45.9879 127.613ZM68.1158 107.447C68.0275 107.013 67.9596 106.549 67.912 106.053C67.7362 103.817 68.0308 101.737 68.7957 99.8146C69.7252 97.4597 71.1406 96.0889 73.0418 95.7022C73.7053 95.5673 74.3743 95.5575 75.0488 95.6727L74.3569 84.3331C74.2575 82.7987 74.6402 81.9369 75.5053 81.7477C75.6457 81.7191 75.7886 81.7034 75.9342 81.7003C76.5496 81.7213 76.956 82.2167 77.1532 83.1864C77.2337 83.5819 77.4161 85.8834 77.7005 90.0908C78.3598 99.6698 78.7842 104.925 78.9736 105.857C79.093 106.443 79.3258 106.967 79.6721 107.429C80.185 108.121 80.7414 108.407 81.3411 108.285C81.4559 108.262 81.5745 108.224 81.6969 108.173C82.0642 108.018 82.5595 107.612 83.183 106.954C83.7937 106.298 84.3096 105.927 84.7307 105.842C84.9093 105.805 85.0882 105.835 85.2673 105.932C85.6254 106.125 85.8447 106.419 85.9251 106.814C86.009 107.488 85.6528 108.285 84.8566 109.204C83.8743 110.254 82.7388 110.911 81.4501 111.173C79.8525 111.484 78.4832 110.926 77.3422 109.497C77.1976 109.765 77.0261 110.033 76.8277 110.299C75.8312 111.671 74.7013 112.486 73.4381 112.742C72.6343 112.906 71.8973 112.843 71.2273 112.554C69.7135 111.905 68.6763 110.203 68.1158 107.447ZM75.1941 107.363C75.3107 107.087 75.3864 106.413 75.4212 105.343C75.4826 103.032 75.4008 100.637 75.1756 98.1583C74.8536 98.0776 74.5292 98.0505 74.2025 98.0771C73.9728 98.1239 73.7432 98.2038 73.5138 98.3169C72.3946 98.89 71.6161 100.191 71.1784 102.22C70.7911 104.039 70.7687 105.791 71.1112 107.476C71.1398 107.616 71.1747 107.755 71.216 107.893C71.5679 109.296 72.1074 109.924 72.8347 109.776C73.2022 109.688 73.6264 109.389 74.1074 108.879C74.6188 108.323 74.9811 107.818 75.1941 107.363ZM84.8446 94.9361C84.9199 95.3061 85.0183 96.1165 85.1398 97.3674C85.4813 101.072 85.7415 103.364 85.9206 104.244C86.04 104.831 86.2728 105.355 86.619 105.816C87.132 106.509 87.6883 106.795 88.288 106.673C88.4156 106.647 88.547 106.607 88.6822 106.553C89.034 106.388 89.509 105.979 90.1069 105.326C90.6921 104.676 91.1953 104.308 91.6163 104.222C91.795 104.186 91.9866 104.213 92.1912 104.304C92.6004 104.487 92.8478 104.789 92.9334 105.21C93.0147 105.871 92.6508 106.662 91.8418 107.584C90.834 108.64 89.6857 109.298 88.397 109.561C87.3124 109.781 86.3363 109.588 85.4687 108.98C84.1633 108.05 83.2563 106.334 82.7477 103.833C82.5738 102.978 82.4061 101.272 82.2446 98.7136C82.1615 97.5214 82.0961 96.6444 82.0483 96.0828C82.0377 95.9654 82.0271 95.8479 82.0165 95.7305C81.9612 94.413 82.3546 93.6686 83.1967 93.4974C83.337 93.4688 83.48 93.453 83.6255 93.45C84.241 93.471 84.6474 93.9663 84.8446 94.9361ZM81.6428 90.3653C81.5961 90.1356 81.6031 89.9083 81.6636 89.6834C81.8176 89.1339 82.1817 88.8007 82.7559 88.684C82.9855 88.6373 83.2128 88.6442 83.4377 88.7047C83.9873 88.8587 84.3204 89.2228 84.4372 89.797C84.4839 90.0266 84.477 90.2539 84.4164 90.4789C84.2624 91.0284 83.8984 91.3615 83.3242 91.4783C83.0945 91.525 82.8672 91.5181 82.6423 91.4576C82.0928 91.3036 81.7596 90.9395 81.6428 90.3653ZM90.2185 103.131C90.1303 102.697 90.0624 102.233 90.0148 101.737C89.8364 99.4882 90.1297 97.4023 90.8946 95.4795C91.8267 93.1373 93.2434 91.7729 95.1445 91.3862C95.9739 91.2176 96.7337 91.2291 97.4238 91.421C97.6167 91.0628 97.9287 90.8333 98.36 90.7323C99.2047 90.5738 99.7488 91.0278 99.9923 92.0944C100 92.1327 100.326 97.3282 100.97 107.681C103.362 105.002 104.87 103.274 105.496 102.495C105.885 101.991 106.333 101.68 106.841 101.564C107.02 101.528 107.204 101.55 107.393 101.631C107.815 101.811 108.066 102.099 108.147 102.494C108.256 103.097 108.026 103.761 107.456 104.488C106.398 105.82 104.312 108.27 101.198 111.84L101.606 118.354C101.685 119.853 101.292 121.089 100.427 122.062C99.7195 122.831 98.8681 123.316 97.8729 123.518C96.6964 123.744 95.5657 123.509 94.4807 122.813C93.434 122.109 92.8003 121.215 92.5797 120.13C92.3617 119.059 92.4238 118.122 92.766 117.322C92.9814 116.813 93.4631 116.144 94.2111 115.314L94.2455 115.287C94.2557 115.272 94.2875 115.232 94.3409 115.168C95.089 114.338 96.3815 112.886 98.2184 110.812L98.0183 106.986C97.2802 107.734 96.4467 108.209 95.5178 108.411C94.7012 108.577 93.9503 108.511 93.2649 108.212C91.7842 107.53 90.7687 105.836 90.2185 103.131ZM97.2777 103.051C97.4045 102.759 97.4825 102.032 97.5119 100.87C97.5758 98.5055 97.4902 96.1577 97.2554 93.827C96.9308 93.7336 96.614 93.7116 96.3052 93.7612C96.0755 93.8079 95.846 93.8878 95.6165 94.0009C94.4974 94.574 93.7125 95.8763 93.262 97.9079C92.8747 99.7273 92.8523 101.479 93.1949 103.163C93.2312 103.342 93.2739 103.519 93.323 103.695C93.6848 105.017 94.2166 105.606 94.9184 105.464C95.2756 105.391 95.6731 105.124 96.1109 104.663C96.6249 104.12 97.0139 103.583 97.2777 103.051ZM98.5577 117.38C98.5577 117.38 98.5079 116.579 98.4082 114.979C98.3649 115.027 98.3166 115.084 98.2632 115.148C97.1972 116.374 96.6541 117.003 96.6337 117.034C95.8552 117.91 95.5218 118.655 95.6336 119.27C95.6777 119.487 95.7575 119.683 95.873 119.859C96.2041 120.376 96.6631 120.575 97.2501 120.456C97.4925 120.407 97.7016 120.324 97.8775 120.209C98.4482 119.814 98.6749 118.871 98.5577 117.38ZM107.085 90.4128C107.16 90.7828 107.258 91.5933 107.38 92.8441C107.721 96.5483 107.982 98.8406 108.161 99.721C108.28 100.308 108.513 100.832 108.859 101.293C109.372 101.986 109.928 102.271 110.528 102.149C110.656 102.124 110.787 102.083 110.922 102.029C111.274 101.865 111.749 101.456 112.347 100.803C112.932 100.152 113.435 99.7843 113.856 99.6987C114.035 99.6623 114.227 99.6898 114.431 99.7811C114.84 99.9636 115.088 100.265 115.173 100.686C115.255 101.348 114.891 102.139 114.082 103.061C113.074 104.116 111.926 104.775 110.637 105.037C109.552 105.258 108.576 105.064 107.709 104.457C106.403 103.527 105.496 101.811 104.988 99.31C104.814 98.4551 104.646 96.7486 104.485 94.1904C104.402 92.9981 104.336 92.1211 104.288 91.5595C104.278 91.4421 104.267 91.3246 104.257 91.2072C104.201 89.8897 104.595 89.1454 105.437 88.9741C105.577 88.9455 105.72 88.9297 105.866 88.9267C106.481 88.9477 106.887 89.4431 107.085 90.4128ZM103.883 85.842C103.836 85.6123 103.843 85.3851 103.904 85.1601C104.058 84.6106 104.422 84.2775 104.996 84.1607C105.226 84.114 105.453 84.1209 105.678 84.1814C106.227 84.3354 106.56 84.6995 106.677 85.2737C106.724 85.5034 106.717 85.7307 106.656 85.9556C106.502 86.5051 106.138 86.8383 105.564 86.955C105.335 87.0017 105.107 86.9948 104.882 86.9343C104.333 86.7803 104 86.4162 103.883 85.842ZM110.022 83.1982C110.035 83.1956 110.099 83.1826 110.213 83.1593C110.933 83.0395 111.58 82.9212 112.154 82.8044L111.794 76.7191C111.764 76.3131 111.761 75.9684 111.783 75.6849C111.841 74.796 112.221 74.2802 112.923 74.1375C113.063 74.109 113.206 74.0932 113.352 74.0902C113.967 74.1111 114.374 74.6065 114.571 75.5762C114.633 75.8824 114.816 78.0907 115.121 82.201L117.131 81.7923C117.475 81.7222 117.789 81.7314 118.073 81.8199C118.574 81.997 118.878 82.3471 118.984 82.8703C119.031 83.1 119.018 83.3286 118.944 83.5561C118.749 84.1006 118.32 84.4404 117.657 84.5753L115.283 85.058C115.845 92.9162 116.221 97.311 116.41 98.2425C116.53 98.8294 116.762 99.3534 117.109 99.8145C117.622 100.507 118.172 100.794 118.759 100.675C118.899 100.646 119.042 100.597 119.187 100.528C119.513 100.368 119.945 99.9751 120.482 99.3477C121.006 98.7229 121.478 98.3677 121.899 98.2821C122.078 98.2457 122.258 98.249 122.44 98.2918C122.946 98.428 123.247 98.7322 123.343 99.2043C123.439 99.8756 123.088 100.665 122.289 101.571C121.31 102.634 120.175 103.297 118.887 103.559C117.621 103.803 116.48 103.484 115.463 102.601C114.421 101.657 113.728 100.343 113.386 98.6583C113.31 98.2883 112.954 93.956 112.317 85.6614L110.594 86.0117C110.518 86.0273 110.441 86.0429 110.365 86.0584C109.469 86.1609 108.935 85.7911 108.764 84.949C108.717 84.7193 108.712 84.501 108.75 84.294C108.871 83.7114 109.295 83.3461 110.022 83.1982ZM120.401 96.8927C120.313 96.4588 120.245 95.9943 120.197 95.499C120.019 93.2499 120.312 91.1639 121.077 89.2411C122.009 86.899 123.426 85.5346 125.327 85.1479C126.144 84.9818 126.891 84.996 127.568 85.1904C127.761 84.8323 128.079 84.6014 128.523 84.4978C128.779 84.4459 128.942 84.4326 129.014 84.4579C129.598 84.525 129.983 85.0115 130.167 85.9174C130.243 86.2874 130.341 87.0979 130.463 88.3487C130.804 92.0529 131.064 94.3452 131.243 95.2256C131.363 95.8126 131.596 96.3366 131.942 96.7977C132.455 97.4906 133.005 97.7773 133.592 97.658C133.706 97.6346 133.825 97.5972 133.948 97.5457C134.315 97.3913 134.804 96.9863 135.414 96.3305C136.012 95.6774 136.522 95.3081 136.943 95.2224C137.109 95.1887 137.293 95.2111 137.495 95.2896C137.917 95.4695 138.171 95.77 138.256 96.1911C138.353 96.8624 137.989 97.6539 137.165 98.5656C136.17 99.6184 135.021 100.277 133.72 100.542C132.109 100.856 130.758 100.287 129.665 98.8352C129.531 99.0884 129.371 99.3469 129.185 99.6105C128.164 101.054 127.002 101.908 125.7 102.173C124.884 102.339 124.133 102.272 123.447 101.973C121.967 101.291 120.951 99.5977 120.401 96.8927ZM127.542 88.883C127.542 88.883 127.498 88.4401 127.411 87.5543C127.102 87.471 126.794 87.4605 126.488 87.5228C126.258 87.5695 126.029 87.6494 125.799 87.7625C124.68 88.3356 123.901 89.6367 123.464 91.6657C123.076 93.4851 123.054 95.237 123.397 96.9212C123.409 96.985 123.422 97.0488 123.435 97.1126C123.79 98.6615 124.344 99.3594 125.097 99.2063C125.49 99.1131 125.931 98.7975 126.419 98.2597C126.921 97.7192 127.268 97.2368 127.46 96.8122C127.577 96.5361 127.656 95.7825 127.698 94.5515C127.765 92.2658 127.713 90.3763 127.542 88.883ZM146.428 97.8575C143.327 98.3554 140.668 96.9429 138.451 93.6202C136.798 91.1129 135.57 87.8814 134.765 83.9259C134.724 83.7218 134.683 83.4576 134.644 83.1334C134.275 80.4048 134.27 77.8346 134.63 75.4229C135.22 71.5292 136.727 69.3359 139.152 68.8428C139.279 68.8169 139.414 68.796 139.557 68.7802C141.793 68.4716 143.158 69.5295 143.651 71.9538C144.188 74.5951 143.649 77.7607 142.035 81.4508C141.011 83.7984 139.837 85.771 138.515 87.3688C139.442 89.7049 140.29 91.4258 141.06 92.5316C142.486 94.58 144.156 95.4096 146.07 95.0204C146.198 94.9944 146.329 94.9544 146.464 94.9003C146.87 94.7381 147.395 94.3125 148.038 93.6235C148.664 92.978 149.182 92.6137 149.59 92.5306C149.769 92.4943 149.952 92.5167 150.142 92.5978C150.564 92.7777 150.819 93.0846 150.907 93.5184C151.016 94.1871 150.683 94.9658 149.907 95.8544C148.927 96.9173 147.768 97.585 146.428 97.8575ZM139.759 71.729C139.008 71.8949 138.411 72.3552 137.967 73.1099C136.847 75.0518 136.749 78.6527 137.672 83.9127C138.28 82.9786 138.858 81.9042 139.408 80.6895C140.937 77.3622 141.5 74.7034 141.095 72.7129C141.074 72.6108 141.024 72.4948 140.944 72.3648C140.626 71.8449 140.231 71.633 139.759 71.729ZM178.837 89.6316C178.84 89.6444 178.839 89.6712 178.834 89.7121C178.896 90.7359 178.487 91.3373 177.606 91.5164C177.3 91.5786 177.016 91.5566 176.756 91.4502C176.178 91.2222 175.812 90.7319 175.659 89.979L174.917 79.6662L166.132 81.4529C166.462 85.6244 166.71 89.1616 166.875 92.0645C166.907 93.1344 166.49 93.764 165.625 93.9532C165.344 94.0103 165.081 93.9907 164.836 93.8945C164.23 93.6589 163.849 93.1584 163.693 92.3928C163.635 91.7138 163.246 86.0128 162.527 75.29C162.089 68.6954 161.866 65.379 161.858 65.3407C161.819 65.1494 161.851 64.9105 161.952 64.6242C162.185 64.0054 162.556 63.6442 163.067 63.5404C163.309 63.491 163.552 63.5081 163.795 63.5916C164.352 63.7839 164.708 64.1632 164.863 64.7296L165.899 78.2514C167.948 77.8081 170.881 77.1985 174.696 76.4225C174.613 75.363 174.483 73.5491 174.306 70.9808C174.081 67.5852 173.893 64.8994 173.744 62.9234C173.731 62.7268 173.743 62.525 173.78 62.3181C173.936 61.6485 174.346 61.2463 175.01 61.1113C175.252 61.062 175.501 61.0778 175.757 61.1587C176.327 61.3484 176.689 61.7264 176.845 62.2928L177.854 75.7802L182.677 74.7993C182.97 74.7396 183.255 74.7348 183.531 74.785C184.226 74.936 184.642 75.3496 184.78 76.0258C184.821 76.23 184.812 76.4445 184.751 76.6694C184.603 77.2445 184.17 77.6647 183.453 77.93L178.113 79.0161C178.573 85.3271 178.814 88.8656 178.837 89.6316ZM207.29 85.0805C207.494 85.039 207.692 85.0319 207.884 85.0594C208.568 85.1593 208.989 85.5921 209.144 86.3576C209.313 87.2534 208.854 88.1308 207.766 88.9898C206.882 89.6745 205.981 90.1102 205.062 90.2971C203.978 90.5177 202.91 90.396 201.859 89.9321C200.442 89.3034 199.36 88.2281 198.612 86.706C197.86 87.1911 197.038 87.5244 196.144 87.7061C195.876 87.7606 195.611 87.7946 195.348 87.8083C193.293 87.9605 191.404 87.1355 189.682 85.3331C187.791 83.3525 186.494 80.6333 185.791 77.1755C185.371 75.1084 185.245 72.9549 185.414 70.7148C185.678 67.2461 186.555 64.2377 188.043 61.6895C189.582 59.0645 191.455 57.5275 193.662 57.0785C193.917 57.0266 194.183 56.9926 194.459 56.9763C196.527 56.8215 198.421 57.6453 200.143 59.4476C202.032 61.4154 203.325 64.1155 204.023 67.5478C204.547 70.1252 204.653 72.7347 204.34 75.3761C203.932 78.8606 202.906 81.7533 201.261 84.0544C201.383 84.4549 201.508 84.8082 201.636 85.1142C202.252 86.6367 203.14 87.2799 204.301 87.0437C204.72 86.9453 205.242 86.6065 205.868 86.0274C206.421 85.4766 206.894 85.1609 207.29 85.0805ZM188.82 75.7024C189.255 77.7132 189.824 79.3981 190.526 80.7568C190.673 80.5674 190.847 80.3791 191.048 80.1921C191.965 79.3413 193.017 78.7952 194.203 78.5539C194.637 78.4656 195.08 78.4221 195.532 78.4232C197.187 78.4586 198.55 79.1181 199.622 80.4017C200.045 79.412 200.394 78.318 200.668 77.1194C201.371 74.04 201.447 71.1478 200.897 68.4428C200.375 65.8781 199.506 63.8291 198.291 62.2958C196.991 60.6734 195.569 60.0192 194.025 60.3332C193.311 60.4785 192.616 60.9187 191.942 61.6538C190.726 62.9907 189.799 64.9332 189.161 67.4812C188.42 70.4356 188.306 73.176 188.82 75.7024ZM195.835 84.5202C196.422 84.4008 197.006 84.0695 197.586 83.5262C197.071 82.2358 196.199 81.7024 194.969 81.926C194.88 81.9442 194.779 81.9713 194.666 82.0074C193.912 82.2805 193.217 82.7871 192.584 83.5272C193.601 84.41 194.684 84.741 195.835 84.5202ZM229.415 68.622C229.347 68.2902 229.368 67.9671 229.477 67.6527C229.707 67.0212 230.141 66.6406 230.779 66.5108C231.111 66.4434 231.435 66.4704 231.752 66.5919C232.381 66.8095 232.763 67.25 232.898 67.9135C232.963 68.2325 232.935 68.5505 232.813 68.8676C232.58 69.4863 232.138 69.8618 231.487 69.9942C231.168 70.0591 230.844 70.032 230.514 69.9131C229.908 69.6776 229.542 69.2472 229.415 68.622ZM230.672 74.804C230.604 74.4723 230.625 74.1492 230.734 73.8347C230.964 73.2032 231.398 72.8226 232.036 72.6929C232.368 72.6254 232.692 72.6524 233.01 72.774C233.638 72.9915 234.02 73.4321 234.155 74.0956C234.22 74.4145 234.192 74.7326 234.07 75.0496C233.837 75.6683 233.396 76.0439 232.745 76.1762C232.426 76.2411 232.101 76.2141 231.772 76.0951C231.166 75.8596 230.799 75.4292 230.672 74.804ZM237.919 48.7949C239.843 48.4567 241.788 48.5129 243.753 48.9636C246.723 49.6486 249.342 51.0956 251.612 53.3047C254.079 55.6997 255.639 58.5048 256.293 61.7203C256.348 61.9882 256.398 62.2702 256.445 62.5663C256.918 65.8053 256.401 68.9466 254.894 71.9903C253.476 74.8831 251.431 77.1458 248.761 78.7786C247.127 79.762 245.117 80.4963 242.731 80.9816C242.537 81.0077 242.34 80.9879 242.141 80.9222C241.627 80.7477 241.321 80.418 241.222 79.9331C241.176 79.7034 241.189 79.4748 241.262 79.2473C241.429 78.7616 241.761 78.4681 242.259 78.3669L242.584 78.3007C243.962 78.0205 245.271 77.5617 246.51 76.9243C249.192 75.5418 251.194 73.5269 252.515 70.8796C253.906 68.112 254.291 65.2035 253.671 62.154C253.445 61.0439 253.081 59.9751 252.58 58.9476C251.326 56.3726 249.433 54.3856 246.903 52.9868C244.209 51.5017 241.346 50.9812 238.314 51.4251C238.12 51.4513 237.925 51.4379 237.728 51.3849C237.217 51.2231 236.909 50.8871 236.805 50.3767C236.764 50.1725 236.775 49.9644 236.838 49.7522C236.984 49.2308 237.345 48.9117 237.919 48.7949Z" fill="#A7A89A"/>
</svg>