<svg width="80" height="29" viewBox="0 0 100 29" fill="none" xmlns="http://www.w3.org/2000/svg">
            <path d="M16.042 18.6153L15.9424 24.1893C15.9424 24.2446 15.9424 24.2999 15.9424 24.3553C15.9424 24.9635 16.2301 25.2676 16.8052 25.2676C17.2475 25.2676 17.7176 25.1239 18.2153 24.8364C18.3701 24.9691 18.5138 25.1571 18.6465 25.4003C18.7903 25.6327 18.8733 25.8151 18.8953 25.9478C17.5239 27.6953 16.0974 28.5689 14.6153 28.5689C13.1445 28.5689 12.1159 27.8446 11.5297 26.3958C10.5122 27.1035 9.47253 27.6399 8.41084 28.005C7.36019 28.3811 6.45327 28.5689 5.6901 28.5689C4.93813 28.5689 4.23589 28.4861 3.58336 28.3201C2.94187 28.1543 2.34467 27.8887 1.79159 27.5239C0.597198 26.7497 0 25.4723 0 23.6917C0 22.7405 0.259819 21.9112 0.779631 21.2033C1.31047 20.4844 2.02935 19.9203 2.93626 19.5112C4.67271 18.7259 6.74635 18.3001 9.15738 18.2338L11.0817 18.1674C11.1592 17.2716 11.1979 16.5637 11.1979 16.0439C11.1979 14.8716 10.9712 13.9868 10.5178 13.3896C10.0753 12.7924 9.2458 12.4938 8.02934 12.4938C7.29943 12.4938 6.72972 12.7482 6.32056 13.2569C5.92243 13.7656 5.72336 14.5177 5.72336 15.5131C5.72336 15.6458 5.53533 15.8061 5.15925 15.9942C4.52897 16.2928 3.8985 16.4421 3.26804 16.4421C2.64878 16.4421 2.15103 16.2651 1.77514 15.9112C1.4101 15.5573 1.22766 15.0596 1.22766 14.4182C1.22766 13.7767 1.45982 13.174 1.9243 12.6099C2.38879 12.0459 3.00822 11.609 3.78243 11.2993C5.31963 10.6911 7.0727 10.3869 9.0413 10.3869C11.0983 10.3869 12.6024 10.7132 13.5536 11.3657C14.4163 11.9408 15.0301 12.7647 15.395 13.8375C15.8264 15.0873 16.042 16.6799 16.042 18.6153ZM11.0817 24.6538C10.9379 23.8465 10.8662 23.1497 10.8662 22.5637C10.8662 21.9663 10.8826 21.137 10.9159 20.0751L8.60991 20.1747C7.42654 20.1747 6.5142 20.4622 5.87271 21.0373C5.23121 21.6125 4.91047 22.3314 4.91047 23.194C4.91047 24.0566 5.09851 24.676 5.47458 25.0521C5.85047 25.428 6.60822 25.616 7.74729 25.616C8.89756 25.616 10.009 25.2953 11.0817 24.6538ZM35.4019 19.4282L35.4185 18.4162C35.4185 16.5914 35.2527 15.3693 34.9209 14.7499C34.6002 14.1306 33.9918 13.8209 33.0961 13.8209C32.554 13.8209 31.9624 14.02 31.3209 14.4182C30.6794 14.8052 29.8445 15.4301 28.8159 16.2928C28.8269 16.9674 28.8325 18.5545 28.8325 21.054C28.8325 23.5424 28.8269 25.8538 28.8159 27.9884C27.6546 28.2207 26.6482 28.3368 25.7966 28.3368C24.945 28.3368 24.2428 28.2317 23.6897 28.0216C23.8336 25.511 23.9054 23.2327 23.9054 21.1867C23.9054 19.1295 23.8667 16.9785 23.7893 14.7334C23.7893 13.8928 23.4796 13.4062 22.8604 13.2735C22.4843 13.1518 21.9534 13.0634 21.2677 13.008C21.2566 12.9417 21.24 12.8643 21.2179 12.7758C21.2069 12.6763 21.1959 12.5988 21.1847 12.5435C21.1626 12.3887 21.1516 12.256 21.1516 12.1454C21.1516 12.0348 21.1572 11.9353 21.1682 11.8468C22.8161 10.8957 24.8013 10.4201 27.1237 10.4201C27.334 10.4201 27.6381 10.4311 28.0363 10.4533C28.2906 10.8514 28.462 11.4376 28.5505 12.2118C28.639 12.9749 28.7054 13.5113 28.7495 13.8209C30.6628 12.0735 32.3163 10.9897 33.7099 10.5694C34.3512 10.3814 34.9761 10.2874 35.5845 10.2874C36.1927 10.2874 36.7346 10.3482 37.2103 10.4699C37.6968 10.5805 38.1503 10.7629 38.5705 11.0173C39.4553 11.5592 39.9419 12.4717 40.0305 13.7546C42.0654 11.4431 44.3161 10.2874 46.7824 10.2874C48.1648 10.2874 49.2486 10.6413 50.0338 11.3491C50.8966 12.1454 51.3278 13.6993 51.3278 16.0108C51.3278 16.9619 51.2504 18.3168 51.0957 20.0751C50.9407 21.8226 50.8634 23.4041 50.8634 24.8198C50.8634 25.1072 51.068 25.3285 51.4772 25.4833C51.8863 25.6383 52.2845 25.7156 52.6716 25.7156C53.0697 25.7156 53.3407 25.6934 53.4845 25.6493C53.6282 25.9921 53.7002 26.2742 53.7002 26.4953C53.7002 26.7166 53.6835 26.8768 53.6505 26.9764C51.8477 28.1044 50.3602 28.6685 49.1878 28.6685C47.2746 28.6685 46.3177 27.1424 46.3177 24.0899L46.5334 18.2005C46.5334 16.5195 46.3897 15.3748 46.1022 14.7665C45.8146 14.1582 45.2948 13.8541 44.5428 13.8541C43.1161 13.8541 41.623 14.5232 40.0635 15.8614C40.1299 22.7958 40.2295 26.7497 40.3622 27.7229C39.1789 28.0547 38.2166 28.2207 37.4757 28.2207C36.7458 28.2207 35.988 28.1321 35.2028 27.9551C35.1918 27.734 35.1863 27.3856 35.1863 26.91L35.4019 19.4282ZM58.8263 2.57326C59.4789 2.02029 60.1867 1.74379 60.9497 1.74379C61.7129 1.74379 62.3433 1.98158 62.8409 2.45713C63.3387 2.92165 63.5875 3.57969 63.5875 4.43128C63.5875 5.28289 63.2667 6.00177 62.6252 6.58792C61.9839 7.16302 61.2484 7.45057 60.4189 7.45057C59.6005 7.45057 58.9534 7.1962 58.4779 6.68747C58.0134 6.17872 57.7811 5.5262 57.7811 4.7299C57.7811 3.9336 58.1295 3.21472 58.8263 2.57326ZM58.3783 14.7002C58.3783 13.8597 58.0852 13.362 57.4992 13.2071C57.1232 13.0855 56.5923 12.997 55.9065 12.9417C55.8291 12.6099 55.7904 12.3611 55.7904 12.1952C55.7904 12.0182 55.7959 11.88 55.8071 11.7804C57.3996 10.8846 59.3959 10.4367 61.7959 10.4367C62.183 10.4367 62.4705 10.4422 62.6585 10.4533C62.9682 10.9399 63.1837 11.891 63.3054 13.3067C63.394 13.9481 63.4381 14.9158 63.4381 16.2098C63.4381 17.5039 63.394 21.4411 63.3054 28.0216C62.0779 28.2317 61.0548 28.3368 60.2364 28.3368C59.4291 28.3368 58.7434 28.2317 58.1792 28.0216C58.3783 25.3562 58.4779 22.9728 58.4779 20.8715C58.4779 18.759 58.4447 16.702 58.3783 14.7002ZM76.942 24.6538C77.3402 25.0188 77.5669 25.3949 77.6222 25.782C76.1622 27.6399 74.4757 28.5689 72.5624 28.5689C71.3127 28.5689 70.4278 28.0713 69.908 27.076C69.4658 26.2022 69.1947 24.7037 69.0951 22.5801C69.0067 19.2624 68.9624 16.1711 68.9624 13.3067C67.8344 13.2624 67.1432 13.2071 66.8888 13.1408C66.8334 13.0523 66.8058 12.726 66.8058 12.162C66.8058 11.598 66.8334 11.2883 66.8888 11.233L68.9957 11.0339C68.9957 10.8017 69.0288 9.69016 69.0951 7.69941C69.6482 7.13537 70.4555 6.70405 71.5172 6.40543C72.5901 6.09577 73.5411 5.94093 74.3706 5.94093C74.2159 7.3455 74.0886 9.04317 73.9891 11.0339C74.354 11.045 75.4546 11.1113 77.2904 11.233C77.3458 11.421 77.3734 11.7804 77.3734 12.3113C77.3734 12.8422 77.3458 13.1629 77.2904 13.2735C76.2729 13.4062 75.1392 13.4891 73.8895 13.5223C73.8454 14.8384 73.8232 16.5029 73.8232 18.5158C73.8232 20.5175 73.8675 22.4087 73.9559 24.1893C73.9891 24.8751 74.3319 25.2179 74.9845 25.2179C75.648 25.2179 76.3005 25.0299 76.942 24.6538Z" fill="black"/>
            <path d="M93.5074 8.22626L97.1828 10.3483C97.214 10.3664 97.2248 10.4068 97.2068 10.4381L94.4817 15.1581C94.4635 15.1897 94.4227 15.2006 94.3914 15.1821C91.786 13.6373 90.8889 10.2938 92.3694 7.65268L89.6407 12.3787C89.6227 12.41 89.5823 12.4208 89.5509 12.4027L84.8308 9.67753C84.7993 9.6593 84.7882 9.61849 84.8068 9.58708C86.3638 6.96129 89.7475 6.07076 92.3988 7.60103L87.6214 4.84282C87.59 4.82475 87.5793 4.78436 87.5974 4.75307L90.3225 0.0330286C90.3407 0.00144977 90.3815 -0.00949238 90.413 0.0090246C93.0182 1.55375 93.9153 4.89732 92.4348 7.53844L95.157 2.82352C95.1752 2.79223 95.2155 2.78141 95.2468 2.79948L99.967 5.52467C99.9985 5.54289 100.01 5.58374 99.9909 5.61515C98.6539 7.86985 95.9695 8.84522 93.5592 8.10678C93.4848 8.08392 93.4398 8.18734 93.5076 8.22643L93.5074 8.22626Z" fill="url(#paint0_linear_8_357)"/>
            <defs>
              <linearGradient id="paint0_linear_8_357" x1="85.5897" y1="-4.26727" x2="98.8676" y2="12.394" gradientUnits="userSpaceOnUse">
                <stop offset="0.427083" stop-color="#FF8709"/>
                <stop offset="0.791667" stop-color="#10E54A"/>
              </linearGradient>
            </defs>
          </svg>