<svg width="331" height="60" viewBox="0 0 331 60" fill="none" xmlns="http://www.w3.org/2000/svg">
                  <path d="M46.52 35.24H51.88C52.04 36.44 52.5333 37.4933 53.36 38.4C54.2133 39.3067 55.3333 40.0133 56.72 40.52C58.1067 41 59.7067 41.24 61.52 41.24C64.2133 41.24 66.3467 40.8267 67.92 40C69.4933 39.1467 70.28 38 70.28 36.56C70.28 35.3867 69.8267 34.5067 68.92 33.92C68.0133 33.3333 66.3733 32.8933 64 32.6L57.52 31.76C53.8933 31.28 51.2533 30.3867 49.6 29.08C47.9733 27.7467 47.16 25.8667 47.16 23.44C47.16 21.6 47.7067 20.0133 48.8 18.68C49.92 17.32 51.4933 16.28 53.52 15.56C55.5467 14.8133 57.92 14.44 60.64 14.44C63.3333 14.44 65.72 14.84 67.8 15.64C69.88 16.44 71.5333 17.56 72.76 19C74.0133 20.4133 74.6933 22.08 74.8 24H69.44C69.3067 22.9333 68.8533 22.0133 68.08 21.24C67.3333 20.4667 66.32 19.8667 65.04 19.44C63.76 18.9867 62.2533 18.76 60.52 18.76C58.0667 18.76 56.1067 19.16 54.64 19.96C53.1733 20.76 52.44 21.8533 52.44 23.24C52.44 24.3067 52.8667 25.1333 53.72 25.72C54.6 26.28 56.12 26.7067 58.28 27L64.84 27.92C67.5333 28.2933 69.6533 28.8 71.2 29.44C72.7733 30.0533 73.8933 30.8933 74.56 31.96C75.2267 33 75.56 34.3467 75.56 36C75.56 37.92 74.9733 39.6 73.8 41.04C72.6267 42.48 70.9733 43.6 68.84 44.4C66.7333 45.1733 64.2667 45.56 61.44 45.56C66.763 45.56 64.216 45.1333 62.003 44.28C59.816 43.4 58.083 42.1867 56.803 40.64C55.523 39.0933 54.83 37.2933 54.723 35.24ZM104.429 27.8V32.2H83.4694V27.8H104.429ZM86.9494 30L84.8294 43.4L82.3094 40.44H105.589V45H79.4294L81.8294 30L79.4294 15H105.389V19.56H82.3094L84.8294 16.6L86.9494 30ZM114.774 28.52H126.974C128.734 28.52 130.121 28.12 131.134 27.32C132.174 26.52 132.694 25.4267 132.694 24.04C132.694 22.6267 132.174 21.5333 131.134 20.76C130.121 19.96 128.734 19.56 126.974 19.56H114.014L116.374 16.6V45H111.094V15H127.454C129.561 15 131.401 15.3867 132.974 16.16C134.574 16.9067 135.814 17.96 136.694 19.32C137.601 20.6533 138.054 22.2267 138.054 24.04C138.054 25.8 137.601 27.36 136.694 28.72C135.814 30.0533 134.574 31.1067 132.974 31.88C131.401 32.6267 129.561 33 127.454 33H114.774V28.52ZM120.694 30.96H126.894L138.814 45H132.494L120.694 30.96ZM157.751 42.76H155.271L168.191 15H173.831L159.351 45H153.471L138.991 15H144.671L157.751 42.76ZM177.462 15H182.742V45H177.462V15ZM221.094 33.12C220.827 35.5733 219.96 37.7467 218.494 39.64C217.054 41.5067 215.16 42.96 212.814 44C210.467 45.04 207.787 45.56 204.774 45.56C201.414 45.56 198.467 44.9067 195.934 43.6C193.4 42.2933 191.427 40.48 190.014 38.16C188.6 35.8133 187.894 33.0933 187.894 30C187.894 26.9067 188.6 24.2 190.014 21.88C191.427 19.5333 193.4 17.7067 195.934 16.4C198.467 15.0933 201.414 14.44 204.774 14.44C207.787 14.44 210.467 14.96 212.814 16C215.16 17.04 217.054 18.4933 218.494 20.36C219.96 22.2267 220.827 24.4 221.094 26.88H215.774C215.48 25.28 214.84 23.9067 213.854 22.76C212.894 21.6133 211.64 20.7333 210.094 20.12C208.547 19.48 206.76 19.16 204.734 19.16C202.387 19.16 200.347 19.6 198.614 20.48C196.907 21.36 195.587 22.6133 194.654 24.24C193.72 25.8667 193.254 27.7867 193.254 30C193.254 32.2133 193.72 34.1333 194.654 35.76C195.587 37.3867 196.907 38.64 198.614 39.52C200.347 40.4 202.387 40.84 204.734 40.84C206.76 40.84 208.547 40.5333 210.094 39.92C211.64 39.3067 212.894 38.4267 213.854 37.28C214.84 36.1067 215.48 34.72 215.774 33.12H221.094ZM249.898 27.8V32.2H228.938V27.8H249.898ZM232.418 30L230.298 43.4L227.778 40.44H251.058V45H224.898L227.298 30L224.898 15H250.858V19.56H227.778L230.298 16.6L232.418 30ZM254.723 35.24H260.083C260.243 36.44 260.736 37.4933 261.563 38.4C262.416 39.3067 263.536 40.0133 264.923 40.52C266.31 41 267.91 41.24 269.723 41.24C272.416 41.24 274.55 40.8267 276.123 40C277.696 39.1467 278.483 38 278.483 36.56C278.483 35.3867 278.03 34.5067 277.123 33.92C276.216 33.3333 274.576 32.8933 272.203 32.6L265.723 31.76C262.096 31.28 259.456 30.3867 257.803 29.08C256.176 27.7467 255.363 25.8667 255.363 23.44C255.363 21.6 255.91 20.0133 257.003 18.68C258.123 17.32 259.696 16.28 261.723 15.56C263.75 14.8133 266.123 14.44 268.843 14.44C271.536 14.44 273.923 14.84 276.003 15.64C278.083 16.44 279.736 17.56 280.963 19C282.216 20.4133 282.896 22.08 283.003 24H277.643C277.51 22.9333 277.056 22.0133 276.283 21.24C275.536 20.4667 274.523 19.8667 273.243 19.44C271.963 18.9867 270.456 18.76 268.723 18.76C266.27 18.76 264.31 19.16 262.843 19.96C261.376 20.76 260.643 21.8533 260.643 23.24C260.643 24.3067 261.07 25.1333 261.923 25.72C262.803 26.28 264.323 26.7067 266.483 27L273.043 27.92C275.736 28.2933 277.856 28.8 279.403 29.44C280.976 30.0533 282.096 30.8933 282.763 31.96C283.43 33 283.763 34.3467 283.763 36C283.763 37.92 283.176 39.6 282.003 41.04C280.83 42.48 279.176 43.6 277.043 44.4C274.936 45.1733 272.47 45.56 269.643 45.56C266.763 45.56 264.216 45.1333 262.003 44.28C259.816 43.4 258.083 42.1867 256.803 40.64C255.523 39.0933 254.83 37.2933 254.723 35.24Z" fill="#A7A89A"/>
                  <path d="M11.5 36C17.8512 36 23 30.8512 23 24.5H0C0 30.8512 5.14876 36 11.5 36Z" fill="#A7A89A"/>
                  <path d="M319.5 36C325.851 36 331 30.8512 331 24.5H308C308 30.8512 313.149 36 319.5 36Z" fill="#A7A89A"/>
                </svg>